HIERARCHY
ROOT newVegas:Hips
{
	OFFSET 0.000000 96.479958 0.000000
	CHANNELS 6 Xposition Yposition Zposition Xrotation Yrotation Zrotation
	JOINT newVegas:Pelvis
	{
		OFFSET 0.000000 0.000000 0.000000
		CHANNELS 3 Xrotation Yrotation Zrotation
		JOINT newVegas:LeftUpLeg
		{
			OFFSET 18.735201 -5.666702 -4.541200
			CHANNELS 3 Xrotation Yrotation Zrotation
			JOINT newVegas:LeftLeg
			{
				OFFSET -0.021200 -31.938179 0.493100
				CHANNELS 3 Xrotation Yrotation Zrotation
				JOINT newVegas:LeftFoot
				{
					OFFSET 0.021200 -31.938179 -4.336299
					CHANNELS 3 Xrotation Yrotation Zrotation
					JOINT newVegas:LeftToeBase
					{
						OFFSET 0.943001 -26.722000 15.023500
						CHANNELS 3 Xrotation Yrotation Zrotation
						End Site
						{
							OFFSET 0.000000 30.670183 0.000000
						}
					}
				}
				JOINT newVegas:Left_PantLeg
				{
					OFFSET 0.663870 -9.044666 -1.108900
					CHANNELS 3 Xrotation Yrotation Zrotation
					End Site
					{
						OFFSET 1.415995 20.635357 0.000000
					}
				}
			}
		}
		JOINT newVegas:RightUpLeg
		{
			OFFSET -18.735201 -5.666702 -4.541200
			CHANNELS 3 Xrotation Yrotation Zrotation
			JOINT newVegas:RightLeg
			{
				OFFSET 0.018946 -31.938133 0.493100
				CHANNELS 3 Xrotation Yrotation Zrotation
				JOINT newVegas:RightFoot
				{
					OFFSET -0.018946 -31.938126 -4.336299
					CHANNELS 3 Xrotation Yrotation Zrotation
					JOINT newVegas:RightToeBase
					{
						OFFSET -0.943001 -26.722004 15.023500
						CHANNELS 3 Xrotation Yrotation Zrotation
						End Site
						{
							OFFSET 0.000000 30.670187 0.000000
						}
					}
				}
				JOINT newVegas:Right_PantLeg
				{
					OFFSET -0.661674 -9.044716 -1.108900
					CHANNELS 3 Xrotation Yrotation Zrotation
					End Site
					{
						OFFSET -1.415958 20.635269 0.000000
					}
				}
			}
		}
	}
	JOINT newVegas:Spine
	{
		OFFSET 0.000000 10.199997 -0.299500
		CHANNELS 3 Xrotation Yrotation Zrotation
		JOINT newVegas:Spine1
		{
			OFFSET 0.000000 11.900002 -1.516600
			CHANNELS 3 Xrotation Yrotation Zrotation
			JOINT newVegas:Spine2
			{
				OFFSET 0.000000 13.600006 -2.842500
				CHANNELS 3 Xrotation Yrotation Zrotation
				JOINT newVegas:Neck
				{
					OFFSET 0.000000 9.624100 -2.890100
					CHANNELS 3 Xrotation Yrotation Zrotation
					JOINT newVegas:Head
					{
						OFFSET 0.000000 14.068802 -1.351900
						CHANNELS 3 Xrotation Yrotation Zrotation
						JOINT newVegas:Hair_Back
						{
							OFFSET 0.000000 3.231903 -17.524799
							CHANNELS 3 Xrotation Yrotation Zrotation
							End Site
							{
								OFFSET 0.000000 19.849884 0.000000
							}
						}
						JOINT newVegas:Hair_Front
						{
							OFFSET 0.000000 31.260406 4.573800
							CHANNELS 3 Xrotation Yrotation Zrotation
							JOINT newVegas:Hair_Front1
							{
								OFFSET 0.000000 2.284103 11.993300
								CHANNELS 3 Xrotation Yrotation Zrotation
								JOINT newVegas:Hair_Front2
								{
									OFFSET 0.000000 2.284103 11.993300
									CHANNELS 3 Xrotation Yrotation Zrotation
									End Site
									{
										OFFSET 0.000000 12.208862 0.000000
									}
								}
							}
						}
						JOINT newVegas:Jowel
						{
							OFFSET 0.000000 -7.458206 6.864100
							CHANNELS 3 Xrotation Yrotation Zrotation
							End Site
							{
								OFFSET 0.000000 19.849884 0.000000
							}
						}
					}
				}
				JOINT newVegas:LeftShoulder
				{
					OFFSET 15.263000 10.923401 -0.547700
					CHANNELS 3 Xrotation Yrotation Zrotation
					JOINT newVegas:LeftArm
					{
						OFFSET 25.438599 -2.830597 -13.032500
						CHANNELS 3 Xrotation Yrotation Zrotation
						JOINT newVegas:LeftForeArm
						{
							OFFSET 29.960503 0.000000 0.000000
							CHANNELS 3 Xrotation Yrotation Zrotation
							JOINT newVegas:LeftHand
							{
								OFFSET 27.849251 0.000000 0.000000
								CHANNELS 3 Xrotation Yrotation Zrotation
								JOINT newVegas:LeftHandThumb1
								{
									OFFSET 4.487587 -3.305161 6.305391
									CHANNELS 3 Xrotation Yrotation Zrotation
									JOINT newVegas:LeftHandThumb2
									{
										OFFSET 5.480453 -3.164139 3.164143
										CHANNELS 3 Xrotation Yrotation Zrotation
										JOINT newVegas:LeftHandThumb3
										{
											OFFSET 5.159721 -2.978973 2.978967
											CHANNELS 3 Xrotation Yrotation Zrotation
											End Site
											{
												OFFSET 2.494507 5.926697 1.738678
											}
										}
									}
								}
								JOINT newVegas:LeftHandIndex1
								{
									OFFSET 18.578728 -0.527832 5.208049
									CHANNELS 3 Xrotation Yrotation Zrotation
									JOINT newVegas:LeftHandIndex2
									{
										OFFSET 3.192009 0.000000 0.000000
										CHANNELS 3 Xrotation Yrotation Zrotation
										JOINT newVegas:LeftHandIndex3
										{
											OFFSET 3.835129 0.000000 0.000000
											CHANNELS 3 Xrotation Yrotation Zrotation
											End Site
											{
												OFFSET -0.034599 3.816971 0.371180
											}
										}
									}
								}
								JOINT newVegas:LeftHandMiddle1
								{
									OFFSET 18.476105 0.000000 0.000000
									CHANNELS 3 Xrotation Yrotation Zrotation
									JOINT newVegas:LeftHandMiddle2
									{
										OFFSET 3.324875 0.000000 0.000000
										CHANNELS 3 Xrotation Yrotation Zrotation
										JOINT newVegas:LeftHandMiddle3
										{
											OFFSET 4.596550 0.000000 0.000000
											CHANNELS 3 Xrotation Yrotation Zrotation
											End Site
											{
												OFFSET 0.057701 4.578827 0.399218
											}
										}
									}
								}
								JOINT newVegas:LeftHandRing1
								{
									OFFSET 17.732719 0.121887 -4.201567
									CHANNELS 3 Xrotation Yrotation Zrotation
									JOINT newVegas:LeftHandRing2
									{
										OFFSET 2.733170 0.000000 0.000000
										CHANNELS 3 Xrotation Yrotation Zrotation
										JOINT newVegas:LeftHandRing3
										{
											OFFSET 3.178268 0.000000 0.000000
											CHANNELS 3 Xrotation Yrotation Zrotation
											End Site
											{
												OFFSET 0.119102 3.170624 0.185394
											}
										}
									}
								}
								JOINT newVegas:LeftHandPinky1
								{
									OFFSET 15.989624 -0.606689 -7.535461
									CHANNELS 3 Xrotation Yrotation Zrotation
									JOINT newVegas:LeftHandPinky2
									{
										OFFSET 2.538986 0.000000 0.000000
										CHANNELS 3 Xrotation Yrotation Zrotation
										JOINT newVegas:LeftHandPinky3
										{
											OFFSET 2.593102 0.000000 0.000000
											CHANNELS 3 Xrotation Yrotation Zrotation
											End Site
											{
												OFFSET -0.150902 2.584198 0.152708
											}
										}
									}
								}
							}
							JOINT newVegas:Left_Sleeve
							{
								OFFSET 0.267448 -0.649796 0.577675
								CHANNELS 3 Xrotation Yrotation Zrotation
								End Site
								{
									OFFSET 0.000000 15.991241 0.000000
								}
							}
							JOINT newVegas:Left_CapeC
							{
								OFFSET 15.715958 -8.608795 -6.935905
								CHANNELS 3 Xrotation Yrotation Zrotation
								JOINT newVegas:Left_CapeC1
								{
									OFFSET 0.000000 -8.688499 0.000000
									CHANNELS 3 Xrotation Yrotation Zrotation
									End Site
									{
										OFFSET 0.000000 8.688499 0.000000
									}
								}
							}
						}
						JOINT newVegas:Left_CapeB
						{
							OFFSET 26.118385 -8.608795 -7.079235
							CHANNELS 3 Xrotation Yrotation Zrotation
							JOINT newVegas:Left_CapeB1
							{
								OFFSET 0.000000 -8.688499 0.000000
								CHANNELS 3 Xrotation Yrotation Zrotation
								End Site
								{
									OFFSET 0.000000 8.688499 0.000000
								}
							}
						}
						JOINT newVegas:Left_CapeA
						{
							OFFSET 5.115639 -8.608795 -10.395809
							CHANNELS 3 Xrotation Yrotation Zrotation
							JOINT newVegas:Left_CapeA1
							{
								OFFSET 0.000000 -8.688499 0.000000
								CHANNELS 3 Xrotation Yrotation Zrotation
								End Site
								{
									OFFSET 0.000000 8.688499 0.000000
								}
							}
						}
					}
				}
				JOINT newVegas:RightShoulder
				{
					OFFSET -15.263000 10.923401 -0.547700
					CHANNELS 3 Xrotation Yrotation Zrotation
					JOINT newVegas:RightArm
					{
						OFFSET -25.438599 -2.830597 -13.032500
						CHANNELS 3 Xrotation Yrotation Zrotation
						JOINT newVegas:RightForeArm
						{
							OFFSET -29.960503 0.000000 0.000000
							CHANNELS 3 Xrotation Yrotation Zrotation
							JOINT newVegas:RightHand
							{
								OFFSET -27.849251 0.000000 0.000000
								CHANNELS 3 Xrotation Yrotation Zrotation
								JOINT newVegas:RightHandThumb1
								{
									OFFSET -4.487587 -3.305161 6.305391
									CHANNELS 3 Xrotation Yrotation Zrotation
									JOINT newVegas:RightHandThumb2
									{
										OFFSET -5.480453 -3.164139 3.164143
										CHANNELS 3 Xrotation Yrotation Zrotation
										JOINT newVegas:RightHandThumb3
										{
											OFFSET -5.159721 -2.978973 2.978967
											CHANNELS 3 Xrotation Yrotation Zrotation
											End Site
											{
												OFFSET -2.494507 5.926697 1.738678
											}
										}
									}
								}
								JOINT newVegas:RightHandIndex1
								{
									OFFSET -18.578728 -0.527832 5.208049
									CHANNELS 3 Xrotation Yrotation Zrotation
									JOINT newVegas:RightHandIndex2
									{
										OFFSET -3.192009 0.000000 0.000000
										CHANNELS 3 Xrotation Yrotation Zrotation
										JOINT newVegas:RightHandIndex3
										{
											OFFSET -3.835129 0.000000 0.000000
											CHANNELS 3 Xrotation Yrotation Zrotation
											End Site
											{
												OFFSET 0.034599 3.816971 0.371180
											}
										}
									}
								}
								JOINT newVegas:RightHandMiddle1
								{
									OFFSET -18.476105 0.000000 0.000000
									CHANNELS 3 Xrotation Yrotation Zrotation
									JOINT newVegas:RightHandMiddle2
									{
										OFFSET -3.324875 0.000000 0.000000
										CHANNELS 3 Xrotation Yrotation Zrotation
										JOINT newVegas:RightHandMiddle3
										{
											OFFSET -4.596550 0.000000 0.000000
											CHANNELS 3 Xrotation Yrotation Zrotation
											End Site
											{
												OFFSET -0.057701 4.578827 0.399218
											}
										}
									}
								}
								JOINT newVegas:RightHandRing1
								{
									OFFSET -17.732719 0.121887 -4.201567
									CHANNELS 3 Xrotation Yrotation Zrotation
									JOINT newVegas:RightHandRing2
									{
										OFFSET -2.733170 0.000000 0.000000
										CHANNELS 3 Xrotation Yrotation Zrotation
										JOINT newVegas:RightHandRing3
										{
											OFFSET -3.178268 0.000000 0.000000
											CHANNELS 3 Xrotation Yrotation Zrotation
											End Site
											{
												OFFSET -0.119102 3.170624 0.185394
											}
										}
									}
								}
								JOINT newVegas:RightHandPinky1
								{
									OFFSET -15.989624 -0.606689 -7.535461
									CHANNELS 3 Xrotation Yrotation Zrotation
									JOINT newVegas:RightHandPinky2
									{
										OFFSET -2.538986 0.000000 0.000000
										CHANNELS 3 Xrotation Yrotation Zrotation
										JOINT newVegas:RightHandPinky3
										{
											OFFSET -2.593102 0.000000 0.000000
											CHANNELS 3 Xrotation Yrotation Zrotation
											End Site
											{
												OFFSET 0.150902 2.584198 0.152708
											}
										}
									}
								}
							}
							JOINT newVegas:Right_CapeC
							{
								OFFSET -15.715958 -8.608795 -6.935905
								CHANNELS 3 Xrotation Yrotation Zrotation
								JOINT newVegas:Right_CapeC1
								{
									OFFSET 0.000000 -8.688499 0.000000
									CHANNELS 3 Xrotation Yrotation Zrotation
									End Site
									{
										OFFSET 0.000000 8.688499 0.000000
									}
								}
							}
							JOINT newVegas:Right_Sleeve
							{
								OFFSET -0.267448 -0.649994 0.577675
								CHANNELS 3 Xrotation Yrotation Zrotation
								End Site
								{
									OFFSET 0.000000 15.991302 0.000000
								}
							}
						}
						JOINT newVegas:Right_CapeA
						{
							OFFSET -5.115540 -8.608795 -10.395824
							CHANNELS 3 Xrotation Yrotation Zrotation
							JOINT newVegas:Right_CapeA1
							{
								OFFSET 0.000000 -8.688499 0.000000
								CHANNELS 3 Xrotation Yrotation Zrotation
								End Site
								{
									OFFSET 0.000000 8.688499 0.000000
								}
							}
						}
						JOINT newVegas:Right_CapeB
						{
							OFFSET -26.118187 -8.608795 -7.079266
							CHANNELS 3 Xrotation Yrotation Zrotation
							JOINT newVegas:Right_CapeB1
							{
								OFFSET 0.000000 -8.688499 0.000000
								CHANNELS 3 Xrotation Yrotation Zrotation
								End Site
								{
									OFFSET 0.000000 8.688499 0.000000
								}
							}
						}
					}
				}
				JOINT newVegas:Left_Collar
				{
					OFFSET 18.625099 8.655502 8.828100
					CHANNELS 3 Xrotation Yrotation Zrotation
					JOINT newVegas:Left_Collar1
					{
						OFFSET 14.783401 10.540405 -1.259500
						CHANNELS 3 Xrotation Yrotation Zrotation
						End Site
						{
							OFFSET 0.000000 18.199875 0.000000
						}
					}
				}
				JOINT newVegas:Collar_Back
				{
					OFFSET 0.000000 15.630707 -20.132601
					CHANNELS 3 Xrotation Yrotation Zrotation
					End Site
					{
						OFFSET 0.000000 22.523010 0.000000
					}
				}
				JOINT newVegas:Left_Peck
				{
					OFFSET 17.239599 -5.132599 25.482599
					CHANNELS 3 Xrotation Yrotation Zrotation
					End Site
					{
						OFFSET 0.000000 22.523010 0.000000
					}
				}
				JOINT newVegas:Right_Peck
				{
					OFFSET -17.239599 -5.132202 25.482599
					CHANNELS 3 Xrotation Yrotation Zrotation
					End Site
					{
						OFFSET 0.000000 22.523010 0.000000
					}
				}
				JOINT newVegas:Right_Collar
				{
					OFFSET -18.625099 8.655792 8.828100
					CHANNELS 3 Xrotation Yrotation Zrotation
					JOINT newVegas:Right_Collar1
					{
						OFFSET -14.783401 10.539993 -1.259500
						CHANNELS 3 Xrotation Yrotation Zrotation
						End Site
						{
							OFFSET 0.000000 18.199631 0.000000
						}
					}
				}
			}
		}
		JOINT newVegas:Belly
		{
			OFFSET 0.000000 -6.540398 9.014299
			CHANNELS 3 Xrotation Yrotation Zrotation
			End Site
			{
				OFFSET 0.000000 11.566666 0.000000
			}
		}
	}
	JOINT newVegas:ElvisFacialAnim_Joint
	{
		OFFSET 1.000000 -95.330101 -8.825800
		CHANNELS 3 Xrotation Yrotation Zrotation
		End Site
		{
			OFFSET 0.000000 35.315800 0.000000
		}
	}
}
MOTION
Frames: 4
Frame Time: 0.033333
-1.701224 93.711182 2.385727 2.912642 -28.993289 1.190040 0.000000 -0.000002 0.000000 -19.101946 17.302017 13.857301 23.893378 12.123074 -1.504229 -6.536265 -3.224752 -8.273289 0.000000 0.000000 0.000000 -0.000000 0.000001 0.000000 -12.319261 -0.375391 -11.130024 16.868378 9.899687 0.865272 -8.231703 -1.387076 8.929157 -0.000000 0.000001 -0.000000 -0.000000 -0.000002 -0.000001 7.835958 -0.360020 -2.682280 1.099251 -0.880575 2.383464 1.108680 -0.590424 2.446364 -0.923001 3.567125 -1.380670 -0.922999 3.567125 -1.380669 -0.000000 -0.000003 0.000000 -0.923001 3.567129 -1.380670 -0.923002 3.567121 -1.380669 -0.000000 -0.000001 -0.000000 -0.000000 -0.000003 0.000000 -0.057396 -8.759431 -0.061005 -55.250729 0.329458 -41.449488 11.584414 -65.827553 13.005554 -50.191013 12.353002 4.611032 17.551563 -5.699222 -12.932297 10.850497 26.127739 8.644819 -0.000001 -0.000003 -0.000005 13.980877 1.201560 -55.004364 0.370828 1.161736 -65.441880 -0.000000 -0.000001 0.000004 7.504698 1.174472 -63.778510 1.807816 1.475654 -64.567916 0.000003 0.000000 -0.000000 8.574286 2.179111 -75.148986 -0.207632 1.009302 -57.855035 -0.000001 0.000001 -0.000001 10.030123 13.637045 -84.750244 0.877047 0.062300 -64.595510 0.000000 -0.000003 -0.000000 0.000001 0.000001 0.000001 0.000001 0.000001 0.000001 0.000000 0.000001 0.000001 0.000002 -0.000002 0.000001 0.000002 -0.000003 0.000000 0.000002 -0.000002 0.000001 0.000000 -0.000003 0.000001 4.849287 7.760150 5.560446 -0.933137 -2.177081 61.845614 11.299267 18.944262 -3.987696 -0.459193 6.619737 5.830211 15.788518 -2.734497 -17.205836 -2.198319 -31.113544 7.361260 0.000002 -0.000004 -0.000003 2.365994 -3.659810 8.487042 -2.161445 -2.473889 18.672649 0.000001 0.000000 -0.000000 -1.965965 -5.710270 13.663203 0.283197 -5.109087 26.987998 0.000001 0.000000 0.000001 -3.269679 -8.562077 11.768097 4.025544 -4.063440 33.262318 -0.000000 0.000002 0.000002 -6.474268 -11.349457 23.260467 10.721463 -2.558708 34.823030 -0.000000 -0.000000 -0.000001 0.000001 0.000000 -0.000001 -0.000000 -0.000000 0.000001 0.000001 0.000000 0.000001 0.000003 0.000001 0.000001 0.000003 0.000001 0.000001 0.000003 0.000001 0.000001 0.000003 0.000001 0.000001 -0.000000 0.000001 -0.000000 -0.000000 0.000001 -0.000000 -0.000000 0.000001 -0.000000 -0.000000 0.000001 -0.000000 -0.000000 0.000001 -0.000000 -0.000000 0.000001 -0.000000 -0.000000 0.000001 -0.000000 0.000000 -0.000001 0.000000 0.000000 -0.000002 0.000000 
-2.823698 93.322479 3.056884 3.035430 -28.511657 1.374783 0.000000 -0.000000 0.000000 -21.348965 17.310160 15.998134 28.245073 9.839086 -3.737049 -7.888171 -3.326286 -5.924362 0.000000 0.000000 0.000000 -0.000001 0.000000 0.000001 -12.492390 -0.170774 -10.916208 20.007957 8.572402 1.275843 -11.285347 -1.199950 7.949920 -0.000000 -0.000002 -0.000000 0.000001 0.000002 -0.000001 8.014099 0.198757 -1.701341 0.792583 -0.292589 1.879429 0.804544 -0.082445 1.862364 -0.808382 3.341241 -1.517365 -0.808382 3.341252 -1.517366 0.000002 0.000001 -0.000000 -0.808381 3.341252 -1.517368 -0.808382 3.341235 -1.517365 -0.000000 0.000001 -0.000000 0.000002 0.000001 -0.000000 -0.255830 -6.501857 -2.049736 -54.937278 4.709281 -33.198636 11.205252 -72.948271 10.974914 -46.432910 11.323082 4.056401 17.551561 -5.699228 -12.932295 10.850497 26.127741 8.644822 -0.000000 0.000000 -0.000003 13.980875 1.201558 -55.004367 0.370829 1.161738 -65.441880 -0.000002 -0.000001 0.000001 7.504696 1.174470 -63.778510 1.807815 1.475654 -64.567923 -0.000001 -0.000002 0.000003 8.574285 2.179111 -75.148986 -0.207632 1.009299 -57.855049 -0.000002 -0.000002 -0.000004 10.030121 13.637044 -84.750244 0.877047 0.062303 -64.595510 -0.000000 0.000000 -0.000001 0.000002 -0.000001 -0.000001 0.000002 -0.000001 -0.000001 0.000001 -0.000001 -0.000001 0.000002 -0.000001 -0.000002 0.000002 -0.000002 -0.000001 0.000002 -0.000001 -0.000002 0.000000 -0.000003 -0.000002 4.568858 8.590424 6.964241 0.444708 -3.199894 60.041632 12.478671 22.060915 -5.687449 -0.579763 4.992166 6.829585 15.788544 -2.734496 -17.205883 -2.198326 -31.113578 7.361231 -0.000001 -0.000003 0.000001 2.366025 -3.659814 8.487051 -2.161473 -2.473878 18.672626 -0.000000 0.000001 -0.000002 -1.965934 -5.710264 13.663186 0.283185 -5.109106 26.988007 0.000000 -0.000001 0.000000 -3.269634 -8.562055 11.768092 4.025519 -4.063460 33.262297 0.000000 0.000001 -0.000001 -6.474247 -11.349457 23.260460 10.721461 -2.558703 34.823030 0.000000 0.000002 -0.000003 0.000000 0.000000 0.000000 -0.000000 -0.000000 0.000000 0.000000 0.000000 0.000002 -0.000001 -0.000003 0.000000 -0.000001 -0.000003 0.000000 -0.000001 -0.000003 0.000000 -0.000001 -0.000003 0.000000 0.000001 -0.000000 -0.000000 0.000001 -0.000000 -0.000000 0.000001 -0.000000 -0.000000 0.000001 -0.000000 -0.000000 0.000001 -0.000000 -0.000000 0.000001 -0.000000 -0.000000 0.000001 -0.000000 -0.000000 0.000000 -0.000000 -0.000000 0.000000 -0.000000 0.000000 
-3.851838 92.989929 3.932039 2.785396 -27.897221 1.125832 -0.000000 -0.000001 0.000000 -26.191511 16.446191 18.299820 35.448132 8.352937 -3.801782 -6.424951 -3.508098 -4.727983 -0.000000 0.000000 0.000000 -0.000001 -0.000000 0.000000 -11.585122 0.218141 -10.105054 22.101934 6.599960 0.989104 -13.715215 -1.104879 7.702397 0.000000 -0.000000 0.000000 0.000001 -0.000000 -0.000000 8.409744 1.128668 -0.476231 0.638470 0.626384 1.385667 0.671134 0.752497 1.248245 -0.710730 2.963237 -1.530195 -0.710727 2.963237 -1.530194 0.000001 0.000000 0.000000 -0.710730 2.963246 -1.530196 -0.710733 2.963257 -1.530197 0.000001 -0.000000 -0.000000 0.000001 0.000000 0.000000 -0.342337 -4.210754 -3.639430 -55.709717 9.083450 -25.124339 19.055116 -79.232298 17.477945 -42.283949 9.360399 3.626877 17.551564 -5.699225 -12.932297 10.850493 26.127741 8.644821 0.000002 -0.000000 -0.000003 13.980873 1.201557 -55.004364 0.370830 1.161736 -65.441880 -0.000002 -0.000001 0.000003 7.504697 1.174467 -63.778510 1.807815 1.475656 -64.567923 0.000001 -0.000001 -0.000001 8.574283 2.179112 -75.148986 -0.207630 1.009300 -57.855042 -0.000002 -0.000001 0.000003 10.030124 13.637043 -84.750244 0.877044 0.062299 -64.595510 -0.000000 -0.000005 0.000004 -0.000001 -0.000000 0.000001 -0.000001 -0.000000 0.000001 -0.000002 -0.000000 0.000001 -0.000002 0.000001 -0.000000 -0.000002 0.000000 -0.000002 -0.000002 0.000001 -0.000000 -0.000003 0.000000 -0.000002 4.216748 9.653071 8.429711 0.980123 -3.037978 56.407503 12.437331 24.942977 -5.207740 -0.460469 3.853431 6.790750 15.788527 -2.734477 -17.205894 -2.198331 -31.113585 7.361236 0.000001 -0.000001 0.000001 2.365995 -3.659808 8.487045 -2.161452 -2.473872 18.672579 -0.000001 0.000001 0.000000 -1.965961 -5.710259 13.663162 0.283179 -5.109090 26.987985 0.000001 0.000000 0.000000 -3.269678 -8.562062 11.768087 4.025539 -4.063444 33.262304 0.000001 0.000001 0.000002 -6.474256 -11.349435 23.260482 10.721455 -2.558713 34.823057 -0.000000 -0.000000 0.000001 -0.000000 -0.000000 0.000000 -0.000000 -0.000000 -0.000001 -0.000000 -0.000000 -0.000001 -0.000001 0.000003 -0.000000 -0.000001 0.000003 0.000000 -0.000001 0.000003 -0.000000 -0.000000 0.000003 0.000000 0.000001 -0.000002 -0.000000 0.000001 -0.000002 -0.000000 0.000001 -0.000002 -0.000000 0.000001 -0.000002 -0.000000 0.000001 -0.000002 -0.000000 0.000001 -0.000002 -0.000000 0.000001 -0.000002 -0.000000 0.000000 -0.000001 0.000000 -0.000000 -0.000001 0.000000 
-4.814493 92.756683 5.106819 2.257604 -27.284738 0.664484 0.000000 0.000001 0.000000 -32.511437 14.513199 19.868786 43.064056 6.771727 -2.772822 -0.693093 -3.724083 -2.067347 0.000000 0.000000 0.000000 -0.000000 -0.000000 -0.000000 -9.411998 0.723098 -8.961549 22.672936 4.223462 0.115522 -15.639093 -1.110533 8.112109 -0.000000 0.000000 -0.000000 0.000002 0.000001 -0.000001 8.882241 2.302939 0.709160 0.326408 1.657830 0.970387 0.403486 1.726207 0.697185 -0.503961 2.457361 -1.383945 -0.503963 2.457367 -1.383945 0.000000 -0.000000 -0.000000 -0.503958 2.457364 -1.383945 -0.503963 2.457359 -1.383944 -0.000001 -0.000001 0.000000 0.000000 -0.000000 -0.000000 -0.364882 -0.700079 -5.209673 -57.034033 12.044057 -17.811918 34.637938 -83.999210 31.598456 -37.955976 7.548391 3.044659 17.551563 -5.699226 -12.932298 10.850495 26.127743 8.644824 0.000003 0.000000 -0.000003 13.980876 1.201557 -55.004364 0.370827 1.161736 -65.441880 -0.000001 -0.000001 0.000001 7.504698 1.174469 -63.778503 1.807819 1.475657 -64.567916 -0.000003 0.000002 0.000001 8.574287 2.179110 -75.148992 -0.207632 1.009302 -57.855042 0.000001 -0.000001 -0.000001 10.030124 13.637041 -84.750244 0.877049 0.062301 -64.595510 0.000001 -0.000005 -0.000000 0.000001 -0.000001 -0.000000 0.000001 -0.000001 -0.000000 0.000000 -0.000001 -0.000000 -0.000003 -0.000002 -0.000003 -0.000003 -0.000002 -0.000005 -0.000003 -0.000002 -0.000003 -0.000005 -0.000003 -0.000004 3.672181 11.885474 10.447435 0.695920 -3.913403 51.267461 11.452203 27.835341 -3.950275 -0.116764 2.910980 5.304448 15.788536 -2.734514 -17.205887 -2.198323 -31.113564 7.361247 -0.000000 -0.000002 0.000003 2.366002 -3.659826 8.487013 -2.161452 -2.473884 18.672624 -0.000002 -0.000000 -0.000002 -1.965945 -5.710271 13.663132 0.283188 -5.109093 26.987981 -0.000000 0.000000 0.000002 -3.269652 -8.562075 11.768053 4.025531 -4.063431 33.262318 0.000000 0.000002 -0.000000 -6.474266 -11.349462 23.260431 10.721479 -2.558714 34.823077 0.000000 0.000003 0.000004 0.000000 -0.000001 0.000003 0.000000 -0.000001 0.000003 0.000000 -0.000001 0.000003 -0.000001 0.000000 0.000001 -0.000001 0.000000 0.000001 -0.000001 0.000000 0.000001 -0.000001 -0.000000 0.000001 -0.000001 -0.000001 0.000000 -0.000001 -0.000001 0.000000 -0.000001 -0.000001 0.000000 -0.000001 -0.000001 0.000000 -0.000001 -0.000001 0.000000 -0.000001 -0.000001 0.000000 -0.000001 -0.000001 0.000000 -0.000000 0.000000 0.000001 0.000000 0.000001 0.000000 
